<mxfile host="Electron" modified="2024-05-16T00:58:59.501Z" agent="Mozilla/5.0 (Windows NT 10.0; Win64; x64) AppleWebKit/537.36 (KHTML, like Gecko) draw.io/24.2.5 Chrome/120.0.6099.109 Electron/28.1.0 Safari/537.36" etag="OXmSjUD4BHVI7fTsZbKN" version="24.2.5" type="device">
  <diagram name="第 1 页" id="ewl9boTtj5eG1xmZE2dz">
    <mxGraphModel dx="165" dy="123" grid="1" gridSize="3.937" guides="1" tooltips="1" connect="1" arrows="1" fold="1" page="1" pageScale="1" pageWidth="48" pageHeight="48" background="#464647" math="0" shadow="0">
      <root>
        <mxCell id="0" />
        <mxCell id="1" parent="0" />
        <mxCell id="ViX3dZfSZW_5mHSU9e22-7" value="" style="verticalLabelPosition=bottom;html=1;verticalAlign=top;strokeWidth=2;shape=mxgraph.lean_mapping.physical_pull;pointerEvents=1;rotation=-90;fillColor=#E6E6E6;strokeColor=#E6E6E6;" vertex="1" parent="1">
          <mxGeometry x="-43.31" y="-43.31" width="39.37" height="39.37" as="geometry" />
        </mxCell>
        <mxCell id="ViX3dZfSZW_5mHSU9e22-8" value="" style="rounded=1;whiteSpace=wrap;html=1;fillColor=none;strokeColor=#E6E6E6;strokeWidth=2;rotation=30;" vertex="1" parent="1">
          <mxGeometry x="-31.5" y="-31.5" width="15.81" height="15.69" as="geometry" />
        </mxCell>
      </root>
    </mxGraphModel>
  </diagram>
</mxfile>
